# xmcd CD database generated by RipIT
#
# Track frame offsets:
# 150
# 22885
# 47552
# 77839
# 94519
# 116062
# 141369
# 158449
# 187087
# 199619
# 219276
# 238659
# 264594
#
# Disc length: 4534 seconds
#
# Revision: 0
# Processed by: cddbd v1.5.2PL0 Copyright (c) Steve Scherf et al.
# Submitted via: RipIT 3.9.0 www.suwald.com/ripit/ripit.html on 2015-07-28 at 14:56
#
DISCID=a811b40d
DTITLE=Keller Mountain Blues Band - keep 'em coming!
DYEAR=2011
DGENRE=Blues
TTITLE0=Don't change horses
TTITLE1=Real mother for ya
TTITLE2=Chain of fools
TTITLE3=Compared to what
TTITLE4=One beer too much
TTITLE5=Take me for a take
TTITLE6=Signed sealed delivered
TTITLE7=Hi De Ho
TTITLE8=Guilty
TTITLE9=Ride like the wind
TTITLE10=Brick house
TTITLE11=Long train running
TTITLE12=Medley
EXTD=Ralf Heilmann - piano, organ
EXTD=\nThomas Langguth - guitar, vocals
EXTD=\nRainer Adebahr - guitar, vocals
EXTD=\nRoland Zenk - bass
EXTD=\nJochen Schmidt - drums, cajón
EXTD=\nNadin Albrecht - vocals
EXTD=\nAlex Teubner - vocals, blues harp
EXTD=\nThomas Schleicher - trumpet
EXTD=\nGuido Grimm - trumpet
EXTD=\nStephan Greisinger - tenor sax
EXTD=\nHarald Dallhammer - baritone sax
EXTD=\nJürgen Trießl - trombone
EXTD=\nGäste
EXTD=\nEva Knorr - backing vocals
EXTD=\nAndrea Richter - backing vocals
EXTD=\nAlexander Lorenz - drums (Ride like the wind)
EXTD=\n
EXTT0=
EXTT1=
EXTT2=
EXTT3=
EXTT4=
EXTT5=
EXTT6=
EXTT7=
EXTT8=
EXTT9=
EXTT10=
EXTT11=
EXTT12=
PLAYORDER=
